{"title":"Buried 2010 DVDrip English Klam","uid":6698075,"size":1134463517,"categoryP":"video","categoryS":"movies","magnet":"?xt=urn:btih:c15e5086d78357bde4c376fe3c4342348f7ee2ef&amp;dn=Buried+2010+DVDrip+English+Klam&amp;tr=udp%3A%2F%2Ftracker.openbittorrent.com%3A80&amp;tr=udp%3A%2F%2Fopen.demonii.com%3A1337&amp;tr=udp%3A%2F%2Ftracker.coppersurfer.tk%3A6969&amp;tr=udp%3A%2F%2Fexodus.desync.com%3A6969","seeders":0,"leechers":0,"uploader":"Klambake","files":5,"time":1316861416,"description":"With: Ryan Reynolds, de stemmen van Robert Paterson en JosÃƒÂ© Luis GarcÃƒÂ­a PÃƒÂ©rez\n\nPaul Conroy (Ryan Reynolds) is een vrachtwagenchauffeur uit de Verenigde Staten die werkzaam is in Irak. Na een aanslag van een groep terroristen wordt Paul wakker in een kist, onder de grond. Hij is levend begraven. Met enkel een aansteker en een mobiele telefoon moet Paul aan deze claustrofobische val proberen te ontsnappen...\n\nPaul is a U.S. truck driver working in Iraq. After an attack by a group of Iraqis he wakes to find he is buried alive inside a coffin. With only a lighter and a cell phone it's a race against time to escape this claustrophobic death trap. \n\n------------------ Dutch Friends ------------------\nYou can find my Friends at: http://www.Film-Test.nl \n------ They got my dutch subs ----- and more ------\n\nGeneral:\n\nComplete name                    : Buried\\Buried.avi\nFormat                           : AVI\nFormat/Info                      : Audio Video Interleave\nFile size                        : 1.06 GiB\nDuration                         : 1h 31mn\nOverall bit rate                 : 1 659 Kbps\n\nVideo:\n\nFormat                           : MPEG-4 Visual\nFormat profile                   : Simple@L3\nFormat settings, BVOP            : No\nFormat settings, QPel            : No\nFormat settings, GMC             : No warppoints\nFormat settings, Matrix          : Default (H.263)\nCodec ID                         : XVID\nCodec ID/Hint                    : XviD\nDuration                         : 1h 31mn\nBit rate                         : 1 200 Kbps\nWidth                            : 720 pixels\nHeight                           : 304 pixels\nDisplay aspect ratio             : 2.35:1\nFrame rate                       : 25.000 fps\nColor space                      : YUV\nChroma subsampling               : 4:2:0\nBit depth                        : 8 bits\nScan type                        : Progressive\nBits/(Pixel*Frame)               : 0.219\nStream size                      : 783 MiB (72%)\nWriting library                  : XviD 1.1.2 (UTC 2006-11-01)\n\nAudio:\n\nFormat                           : AC-3\nFormat/Info                      : Audio Coding 3\nMode extension                   : CM (complete main)\nCodec ID                         : 2000\nDuration                         : 1h 31mn\nBit rate mode                    : Constant\nBit rate                         : 448 Kbps\nChannel(s)                       : 6 channels\nChannel positions                : Front: L C R, Side: L R, LFE\nSampling rate                    : 48.0 KHz\nBit depth                        : 16 bits\nStream size                      : 292 MiB (27%)\nAlignment                        : Aligned on interleaves\nInterleave, duration             : 32 ms (0.80 video frame)\nInterleave, preload duration     : 448 ms\n\n","torrent":{"xt":"urn:btih:c15e5086d78357bde4c376fe3c4342348f7ee2ef","amp;dn":"Buried+2010+DVDrip+English+Klam","amp;tr":["udp%3A%2F%2Ftracker.openbittorrent.com%3A80","udp%3A%2F%2Fopen.demonii.com%3A1337","udp%3A%2F%2Ftracker.coppersurfer.tk%3A6969","udp%3A%2F%2Fexodus.desync.com%3A6969"],"infoHash":"c15e5086d78357bde4c376fe3c4342348f7ee2ef","infoHashBuffer":{"type":"Buffer","data":[193,94,80,134,215,131,87,189,228,195,118,254,60,67,66,52,143,126,226,239]},"announce":[],"urlList":[]}}